<svg width="335" height="66" viewBox="0 0 335 66" fill="none" xmlns="http://www.w3.org/2000/svg">
<path d="M202 10.3333L210.261 3.95231C211.739 2.81042 213.81 2.84365 215.251 4.03235L222.364 9.89994C223.842 11.1193 225.977 11.1193 227.455 9.89994L234.485 4.10006C235.963 2.88072 238.098 2.88072 239.576 4.10006L246.606 9.89994C248.084 11.1193 250.219 11.1193 251.697 9.89994L258.727 4.10006C260.205 2.88072 262.34 2.88072 263.818 4.10006L270.848 9.89994C272.326 11.1193 274.461 11.1193 275.939 9.89994L282.97 4.10006C284.448 2.88072 286.583 2.88072 288.061 4.10006L295.091 9.89994C296.569 11.1193 298.704 11.1193 300.182 9.89994L307.212 4.10006C308.69 2.88072 310.825 2.88072 312.303 4.10006L319.336 9.90203C320.813 11.1204 322.946 11.1215 324.424 9.90453L332 3.66667" stroke="#686868" stroke-width="5" stroke-linecap="round"/>
<path d="M19.15 52.8C15.9833 52.8 13.2833 52.2667 11.05 51.2C8.85 50.1333 7.06667 48.7167 5.7 46.95C4.33333 45.15 3.33333 43.1667 2.7 41C2.06667 38.8333 1.75 36.6667 1.75 34.5C1.75 32.4 2.1 30.2833 2.8 28.15C3.53333 25.9833 4.61667 24 6.05 22.2C7.51667 20.4 9.35 18.95 11.55 17.85C13.75 16.75 16.3333 16.2 19.3 16.2C22.3333 16.2 24.95 16.75 27.15 17.85C29.35 18.95 31.15 20.4167 32.55 22.25C33.95 24.05 34.9833 26.0167 35.65 28.15C36.35 30.2833 36.7 32.4 36.7 34.5C36.7 36.5667 36.3333 38.6667 35.6 40.8C34.9 42.9333 33.8167 44.9167 32.35 46.75C30.9167 48.55 29.1 50.0167 26.9 51.15C24.7 52.25 22.1167 52.8 19.15 52.8ZM19.7 49.15C21.4333 49.15 22.8833 48.7333 24.05 47.9C25.2167 47.0333 26.15 45.9167 26.85 44.55C27.55 43.1833 28.05 41.7 28.35 40.1C28.65 38.4667 28.8 36.8833 28.8 35.35C28.8 33.05 28.6 30.95 28.2 29.05C27.8 27.15 27.1833 25.5167 26.35 24.15C25.5167 22.75 24.45 21.6833 23.15 20.95C21.8833 20.1833 20.3833 19.8167 18.65 19.85C16.95 19.8833 15.5167 20.35 14.35 21.25C13.1833 22.1167 12.25 23.25 11.55 24.65C10.85 26.0167 10.35 27.5167 10.05 29.15C9.75 30.7833 9.6 32.3667 9.6 33.9C9.6 35.4667 9.76667 37.1333 10.1 38.9C10.4667 40.6667 11.0333 42.3333 11.8 43.9C12.5667 45.4667 13.6 46.7333 14.9 47.7C16.2 48.6667 17.8 49.15 19.7 49.15ZM56.7125 52V48.75C57.6458 48.75 58.3125 48.5667 58.7125 48.2C59.1458 47.8333 59.4125 47.3167 59.5125 46.65C59.6458 45.95 59.7125 45.1667 59.7125 44.3V35.05C59.7125 34.5833 59.7292 33.9167 59.7625 33.05C59.7958 32.1833 59.8292 31.3833 59.8625 30.65C59.3292 30.6833 58.7458 30.7167 58.1125 30.75C57.5125 30.7833 57.0292 30.8 56.6625 30.8V27H77.5625L77.7625 36.1H74.5125C74.5125 34.7 74.3458 33.6333 74.0125 32.9C73.7125 32.1333 73.2292 31.6167 72.5625 31.35C71.9292 31.05 71.1125 30.9 70.1125 30.9H66.8125V43.95C66.8125 44.4167 66.7958 45.0833 66.7625 45.95C66.7292 46.7833 66.6792 47.5833 66.6125 48.35L70.8625 48.2V52H56.7125ZM95.1672 52.8C92.7672 52.8 90.6005 52.2833 88.6672 51.25C86.7339 50.2167 85.2005 48.75 84.0672 46.85C82.9672 44.9167 82.4172 42.65 82.4172 40.05C82.4172 37.2833 82.9839 34.8667 84.1172 32.8C85.2839 30.7 86.8172 29.0833 88.7172 27.95C90.6505 26.7833 92.7505 26.2 95.0172 26.2C97.4172 26.2 99.5672 26.7167 101.467 27.75C103.367 28.7833 104.867 30.2667 105.967 32.2C107.067 34.1 107.617 36.3833 107.617 39.05C107.617 41.85 107.084 44.2833 106.017 46.35C104.951 48.4167 103.484 50.0167 101.617 51.15C99.7505 52.25 97.6005 52.8 95.1672 52.8ZM95.3672 49.25C96.7005 49.2167 97.7005 48.75 98.3672 47.85C99.0672 46.95 99.5505 45.8167 99.8172 44.45C100.084 43.0833 100.217 41.7 100.217 40.3C100.217 39.0667 100.117 37.8167 99.9172 36.55C99.7505 35.2833 99.4672 34.1333 99.0672 33.1C98.6672 32.0667 98.1172 31.2333 97.4172 30.6C96.7505 29.9667 95.9172 29.6667 94.9172 29.7C93.6172 29.7333 92.5839 30.2 91.8172 31.1C91.0839 32 90.5505 33.1333 90.2172 34.5C89.9172 35.8333 89.7672 37.2333 89.7672 38.7C89.7672 40.4 89.9505 42.0667 90.3172 43.7C90.6839 45.3333 91.2672 46.6833 92.0672 47.75C92.9005 48.7833 94.0005 49.2833 95.3672 49.25ZM124.538 52.8C122.304 52.8 120.254 52.3 118.388 51.3C116.521 50.3 115.021 48.85 113.888 46.95C112.788 45.05 112.238 42.75 112.238 40.05C112.238 38.15 112.554 36.3667 113.188 34.7C113.821 33.0333 114.704 31.5667 115.838 30.3C117.004 29.0333 118.371 28.0333 119.938 27.3C121.538 26.5667 123.304 26.2 125.238 26.2C127.371 26.2 129.138 26.5333 130.538 27.2C131.971 27.8333 133.038 28.6833 133.738 29.75C134.471 30.7833 134.838 31.8833 134.838 33.05C134.838 34.0167 134.538 34.8833 133.938 35.65C133.371 36.3833 132.554 36.7667 131.488 36.8C130.221 36.8333 129.338 36.4833 128.838 35.75C128.338 34.9833 128.088 34.25 128.088 33.55C128.088 33.25 128.138 32.9 128.238 32.5C128.338 32.0667 128.488 31.6833 128.688 31.35C128.454 30.85 128.104 30.4833 127.638 30.25C127.171 30.0167 126.688 29.8667 126.188 29.8C125.721 29.7 125.338 29.6667 125.038 29.7C123.438 29.8 122.121 30.6 121.088 32.1C120.054 33.6 119.538 35.7667 119.538 38.6C119.538 40.2667 119.738 41.8333 120.138 43.3C120.571 44.7333 121.271 45.9167 122.238 46.85C123.204 47.7833 124.504 48.2833 126.138 48.35C127.538 48.3833 128.904 48.05 130.238 47.35C131.571 46.65 132.704 45.7 133.638 44.5L135.937 46.75C134.738 48.4167 133.488 49.6833 132.188 50.55C130.888 51.4167 129.588 52 128.288 52.3C127.021 52.6333 125.771 52.8 124.538 52.8ZM144.616 52V48.75C145.55 48.75 146.216 48.5667 146.616 48.2C147.05 47.8333 147.316 47.3167 147.416 46.65C147.55 45.95 147.616 45.1667 147.616 44.3V35.05C147.616 34.5833 147.633 33.9667 147.666 33.2C147.7 32.4 147.733 31.6333 147.766 30.9H146.516C145.016 30.9 143.9 31.2833 143.166 32.05C142.433 32.7833 142.066 34.1333 142.066 36.1H138.816L139.016 27H163.266L163.466 36.1H160.216C160.216 34.1333 159.85 32.7833 159.116 32.05C158.383 31.2833 157.266 30.9 155.766 30.9H154.666V43.95C154.666 44.4167 154.65 45.0833 154.616 45.95C154.583 46.7833 154.533 47.5833 154.466 48.35L157.716 48.2V52H144.616ZM180.788 30.25C179.888 30.25 179.222 30.4333 178.788 30.8C178.388 31.1667 178.122 31.6833 177.988 32.35C177.888 33.0167 177.838 33.8 177.838 34.7V43.95C177.838 44.4167 177.822 45.0833 177.788 45.95C177.755 46.7833 177.705 47.5833 177.638 48.35C178.172 48.2833 178.755 48.25 179.388 48.25C180.055 48.2167 180.555 48.2 180.888 48.2V52H167.788V48.75C168.722 48.75 169.388 48.5667 169.788 48.2C170.188 47.8333 170.438 47.3167 170.538 46.65C170.672 45.95 170.738 45.1667 170.738 44.3V35.05C170.738 34.5833 170.755 33.9167 170.788 33.05C170.822 32.1833 170.872 31.3833 170.938 30.65C170.405 30.6833 169.822 30.7167 169.188 30.75C168.555 30.7833 168.055 30.8 167.688 30.8V27H180.788V30.25ZM188.188 31.2L190.588 33.7L176.238 47.5L173.788 44.95L188.188 31.2ZM196.988 30.25C196.088 30.25 195.422 30.4333 194.988 30.8C194.588 31.1667 194.322 31.6833 194.188 32.35C194.088 33.0167 194.038 33.8 194.038 34.7V43.95C194.038 44.4167 194.022 45.0833 193.988 45.95C193.955 46.7833 193.905 47.5833 193.838 48.35C194.372 48.2833 194.955 48.25 195.588 48.25C196.255 48.2167 196.755 48.2 197.088 48.2V52H183.988V48.75C184.922 48.75 185.588 48.5667 185.988 48.2C186.388 47.8333 186.638 47.3167 186.738 46.65C186.872 45.95 186.938 45.1667 186.938 44.3V35.05C186.938 34.5833 186.955 33.9167 186.988 33.05C187.022 32.1833 187.072 31.3833 187.138 30.65C186.605 30.6833 186.022 30.7167 185.388 30.75C184.755 30.7833 184.255 30.8 183.888 30.8V27H196.988V30.25ZM215.398 30.25C214.465 30.25 213.782 30.4333 213.348 30.8C212.948 31.1667 212.682 31.6833 212.548 32.35C212.448 33.0167 212.398 33.8 212.398 34.7V43.95C212.398 44.4167 212.382 45.0833 212.348 45.95C212.315 46.7833 212.265 47.5833 212.198 48.35L215.448 48.2V52H202.298V48.75C203.232 48.75 203.898 48.5667 204.298 48.2C204.732 47.8333 204.998 47.3167 205.098 46.65C205.232 45.95 205.298 45.1667 205.298 44.3V35.05C205.298 34.5833 205.315 33.9167 205.348 33.05C205.382 32.1833 205.415 31.3833 205.448 30.65L202.248 30.8V27H215.398V30.25ZM231.298 30.25C230.365 30.25 229.682 30.4333 229.248 30.8C228.848 31.1667 228.582 31.6833 228.448 32.35C228.348 33.0167 228.298 33.8 228.298 34.7V43.95C228.298 44.4167 228.282 45.0833 228.248 45.95C228.248 46.7833 228.215 47.5833 228.148 48.35L231.398 48.2V52H218.198V48.75C219.132 48.75 219.798 48.5667 220.198 48.2C220.632 47.8333 220.898 47.3167 220.998 46.65C221.132 45.95 221.198 45.1667 221.198 44.3V35.05C221.198 34.5833 221.215 33.9167 221.248 33.05C221.282 32.1833 221.332 31.3833 221.398 30.65L218.148 30.8V27H231.298V30.25ZM209.198 37.3H222.598V41.15L209.198 41.25V37.3ZM249.999 30.25C249.099 30.25 248.433 30.4333 247.999 30.8C247.599 31.1667 247.333 31.6833 247.199 32.35C247.099 33.0167 247.049 33.8 247.049 34.7V43.95C247.049 44.4167 247.033 45.0833 246.999 45.95C246.966 46.7833 246.916 47.5833 246.849 48.35C247.383 48.2833 247.966 48.25 248.599 48.25C249.266 48.2167 249.766 48.2 250.099 48.2V52H236.999V48.75C237.933 48.75 238.599 48.5667 238.999 48.2C239.399 47.8333 239.649 47.3167 239.749 46.65C239.883 45.95 239.949 45.1667 239.949 44.3V35.05C239.949 34.5833 239.966 33.9167 239.999 33.05C240.033 32.1833 240.083 31.3833 240.149 30.65C239.616 30.6833 239.033 30.7167 238.399 30.75C237.766 30.7833 237.266 30.8 236.899 30.8V27H249.999V30.25ZM257.399 31.2L259.799 33.7L245.449 47.5L242.999 44.95L257.399 31.2ZM266.199 30.25C265.299 30.25 264.633 30.4333 264.199 30.8C263.799 31.1667 263.533 31.6833 263.399 32.35C263.299 33.0167 263.249 33.8 263.249 34.7V43.95C263.249 44.4167 263.233 45.0833 263.199 45.95C263.166 46.7833 263.116 47.5833 263.049 48.35C263.583 48.2833 264.166 48.25 264.799 48.25C265.466 48.2167 265.966 48.2 266.299 48.2V52H253.199V48.75C254.133 48.75 254.799 48.5667 255.199 48.2C255.599 47.8333 255.849 47.3167 255.949 46.65C256.083 45.95 256.149 45.1667 256.149 44.3V35.05C256.149 34.5833 256.166 33.9167 256.199 33.05C256.233 32.1833 256.283 31.3833 256.349 30.65C255.816 30.6833 255.233 30.7167 254.599 30.75C253.966 30.7833 253.466 30.8 253.099 30.8V27H266.199V30.25ZM298.959 61.15C298.993 58.9167 298.843 57.1333 298.509 55.8C298.209 54.4667 297.743 53.5 297.109 52.9C296.509 52.3 295.776 52 294.909 52H271.509V48.75C272.443 48.75 273.109 48.5667 273.509 48.2C273.909 47.8333 274.159 47.3167 274.259 46.65C274.393 45.95 274.459 45.1667 274.459 44.3V35.05C274.459 34.5833 274.476 33.9167 274.509 33.05C274.543 32.1833 274.593 31.3833 274.659 30.65L271.409 30.8V27H284.559V30.25C283.626 30.25 282.943 30.4333 282.509 30.8C282.109 31.1667 281.843 31.6833 281.709 32.35C281.609 33.0167 281.559 33.8 281.559 34.7V44C281.559 44.4667 281.543 45.1 281.509 45.9C281.476 46.6667 281.426 47.4 281.359 48.1H287.159C288.093 48.1 288.759 47.95 289.159 47.65C289.593 47.3167 289.859 46.8667 289.959 46.3C290.093 45.7333 290.159 45.0833 290.159 44.35V35.05C290.159 34.5833 290.176 33.9167 290.209 33.05C290.243 32.1833 290.293 31.3833 290.359 30.65L287.109 30.8V27H300.259V30.25C299.326 30.25 298.643 30.4333 298.209 30.8C297.809 31.1667 297.543 31.6833 297.409 32.35C297.309 33.0167 297.259 33.8 297.259 34.7V43.95C297.259 44.4167 297.243 45.0833 297.209 45.95C297.209 46.7833 297.176 47.5833 297.109 48.35L302.209 48.1V61.15H298.959ZM318.939 52.8C316.506 52.8 314.356 52.2667 312.489 51.2C310.622 50.1 309.172 48.5667 308.139 46.6C307.106 44.6 306.589 42.25 306.589 39.55C306.589 37.2167 307.106 35.0333 308.139 33C309.172 30.9667 310.622 29.3333 312.489 28.1C314.389 26.8333 316.589 26.2 319.089 26.2C320.489 26.2 321.856 26.4 323.189 26.8C324.522 27.1667 325.722 27.8167 326.789 28.75C327.889 29.6833 328.756 30.95 329.389 32.55C330.056 34.15 330.372 36.15 330.339 38.55L313.939 38.85C313.939 40.65 314.156 42.2667 314.589 43.7C315.056 45.1333 315.806 46.2667 316.839 47.1C317.872 47.9333 319.256 48.35 320.989 48.35C321.656 48.35 322.406 48.2333 323.239 48C324.106 47.7667 324.972 47.3833 325.839 46.85C326.739 46.2833 327.572 45.5333 328.339 44.6L330.589 46.7C329.389 48.4 328.106 49.7 326.739 50.6C325.372 51.4667 324.006 52.05 322.639 52.35C321.306 52.65 320.072 52.8 318.939 52.8ZM314.239 35.35H323.439C323.406 33.95 323.206 32.85 322.839 32.05C322.506 31.2167 322.039 30.6167 321.439 30.25C320.839 29.8833 320.139 29.7 319.339 29.7C317.872 29.7 316.722 30.2333 315.889 31.3C315.056 32.3333 314.506 33.6833 314.239 35.35Z" fill="#2F70D9"/>
</svg>
